<svg xmlns="http://www.w3.org/2000/svg" xmlns:xlink="http://www.w3.org/1999/xlink" contentStyleType="text/css" data-diagram-type="DESCRIPTION" height="558px" preserveAspectRatio="none" style="width:417px;height:558px;background:#FFFFFF;" version="1.1" viewBox="0 0 417 558" width="417px" zoomAndPan="magnify"><title>Translation Service Component Diagram</title><defs/><g><g class="title" data-source-l?ne="1"><text fill="#000000" font-family="sans-serif" font-size="14" font-weight="bold" lengthAdjust="spacing" textLength="291.6963" x="55.6777" y="23.5352">Translation Service Component Diagram</text></g><!--entity NG--><g class="entity" data-ent?ty="NG" data-source-l?ne="2" data-u?d="ent0002" ?d="entity_NG"><rect fill="#F1F1F1" height="62.9766" rx="2.5" ry="2.5" style="stroke:#181818;stroke-width:0.5;" width="176.8828" x="27.06" y="44.4883"/><rect fill="#F1F1F1" height="10" style="stroke:#181818;stroke-width:0.5;" width="15" x="183.9428" y="49.4883"/><rect fill="#F1F1F1" height="2" style="stroke:#181818;stroke-width:0.5;" width="4" x="181.9428" y="51.4883"/><rect fill="#F1F1F1" height="2" style="stroke:#181818;stroke-width:0.5;" width="4" x="181.9428" y="55.4883"/><text fill="#000000" font-family="sans-serif" font-size="14" lengthAdjust="spacing" textLength="136.8828" x="42.06" y="78.0234">Angular Component</text><text fill="#000000" font-family="sans-serif" font-size="14" lengthAdjust="spacing" textLength="79.5908" x="42.06" y="94.5117">(Templates)</text></g><!--entity Pipe--><g class="entity" data-ent?ty="Pipe" data-source-l?ne="3" data-u?d="ent0003" ?d="entity_Pipe"><rect fill="#F1F1F1" height="62.9766" rx="2.5" ry="2.5" style="stroke:#181818;stroke-width:0.5;" width="131.3486" x="49.82" y="184.4683"/><rect fill="#F1F1F1" height="10" style="stroke:#181818;stroke-width:0.5;" width="15" x="161.1686" y="189.4683"/><rect fill="#F1F1F1" height="2" style="stroke:#181818;stroke-width:0.5;" width="4" x="159.1686" y="191.4683"/><rect fill="#F1F1F1" height="2" style="stroke:#181818;stroke-width:0.5;" width="4" x="159.1686" y="195.4683"/><text fill="#000000" font-family="sans-serif" font-size="14" lengthAdjust="spacing" textLength="91.3486" x="64.82" y="218.0034">TranslatePipe</text><text fill="#000000" font-family="sans-serif" font-size="14" lengthAdjust="spacing" textLength="66.9033" x="64.82" y="234.4917">(name: 't')</text></g><!--entity Service--><g class="entity" data-ent?ty="Service" data-source-l?ne="4" data-u?d="ent0004" ?d="entity_Service"><rect fill="#F1F1F1" height="62.9766" rx="2.5" ry="2.5" style="stroke:#181818;stroke-width:0.5;" width="216.9961" x="7" y="339.4483"/><rect fill="#F1F1F1" height="10" style="stroke:#181818;stroke-width:0.5;" width="15" x="203.9961" y="344.4483"/><rect fill="#F1F1F1" height="2" style="stroke:#181818;stroke-width:0.5;" width="4" x="201.9961" y="346.4483"/><rect fill="#F1F1F1" height="2" style="stroke:#181818;stroke-width:0.5;" width="4" x="201.9961" y="350.4483"/><text fill="#000000" font-family="sans-serif" font-size="14" lengthAdjust="spacing" textLength="123.8193" x="22" y="372.9834">TranslationService</text><text fill="#000000" font-family="sans-serif" font-size="14" lengthAdjust="spacing" textLength="176.9961" x="22" y="389.4717">(lang$, translate, setLang)</text></g><!--entity LS--><g class="entity" data-ent?ty="LS" data-source-l?ne="5" data-u?d="ent0005" ?d="entity_LS"><path d="M64.02,489.4183 C64.02,479.4183 115.5005,479.4183 115.5005,479.4183 C115.5005,479.4183 166.9809,479.4183 166.9809,489.4183 L166.9809,531.3948 C166.9809,541.3948 115.5005,541.3948 115.5005,541.3948 C115.5005,541.3948 64.02,541.3948 64.02,531.3948 L64.02,489.4183" fill="#F1F1F1" style="stroke:#181818;stroke-width:0.5;"/><path d="M64.02,489.4183 C64.02,499.4183 115.5005,499.4183 115.5005,499.4183 C115.5005,499.4183 166.9809,499.4183 166.9809,489.4183" fill="none" style="stroke:#181818;stroke-width:0.5;"/><text fill="#000000" font-family="sans-serif" font-size="14" lengthAdjust="spacing" textLength="82.9609" x="74.02" y="516.9534">localStorage</text><text fill="#000000" font-family="sans-serif" font-size="14" lengthAdjust="spacing" textLength="70.6563" x="74.02" y="533.4417">(app_lang)</text></g><!--link NG to Pipe--><g class="link" data-ent?ty-1="NG" data-ent?ty-2="Pipe" data-source-l?ne="7" data-u?d="lnk6" ?d="link_NG_Pipe"><path d="M115.5,107.9483 C115.5,130.6683 115.5,155.3983 115.5,178.0983" fill="none" id="NG-to-Pipe" style="stroke:#181818;stroke-width:1;"/><polygon fill="#181818" points="115.5,184.0983,119.5,175.0983,115.5,179.0983,111.5,175.0983,115.5,184.0983" style="stroke:#181818;stroke-width:1;"/><text fill="#000000" font-family="sans-serif" font-size="13" lengthAdjust="spacing" textLength="217.0645" x="116.5" y="151.0366">template key =&gt; 'payment.title' | t</text></g><!--link Pipe to Service--><g class="link" data-ent?ty-1="Pipe" data-ent?ty-2="Service" data-source-l?ne="8" data-u?d="lnk7" ?d="link_Pipe_Service"><path d="M115.5,247.9183 C115.5,274.4583 115.5,306.4983 115.5,333.0183" fill="none" id="Pipe-to-Service" style="stroke:#181818;stroke-width:1;"/><polygon fill="#181818" points="115.5,339.0183,119.5,330.0183,115.5,334.0183,111.5,330.0183,115.5,339.0183" style="stroke:#181818;stroke-width:1;"/><text fill="#000000" font-family="sans-serif" font-size="13" lengthAdjust="spacing" textLength="85.1855" x="123.9617" y="291.0166">translate(key)</text><text fill="#000000" font-family="sans-serif" font-size="13" lengthAdjust="spacing" textLength="100.1089" x="116.5" y="306.3272">subscribe lang$</text></g><!--link Service to LS--><g class="link" data-ent?ty-1="Service" data-ent?ty-2="LS" data-source-l?ne="9" data-u?d="lnk8" ?d="link_Service_LS"><path d="M115.5,402.7883 C115.5,425.5883 115.5,450.4683 115.5,473.1383" fill="none" id="Service-to-LS" style="stroke:#181818;stroke-width:1;"/><polygon fill="#181818" points="115.5,479.1383,119.5,470.1383,115.5,474.1383,111.5,470.1383,115.5,479.1383" style="stroke:#181818;stroke-width:1;"/><text fill="#000000" font-family="sans-serif" font-size="13" lengthAdjust="spacing" textLength="130.0444" x="116.5" y="445.9866">read/write dil secimi</text></g><!--link Service to Service--><g class="link" data-ent?ty-1="Service" data-ent?ty-2="Service" data-source-l?ne="10" data-u?d="lnk9" ?d="link_Service_Service"><path d="M224.37,358.4883 C244.69,360.0183 259,364.1683 259,370.9383 C259,377.6983 250.6731,381.3978 230.3531,382.9278" fill="none" id="Service-to-Service" style="stroke:#181818;stroke-width:1;"/><polygon fill="#181818" points="224.37,383.3783,233.6449,386.6912,229.3559,383.0029,233.0443,378.7138,224.37,383.3783" style="stroke:#181818;stroke-width:1;"/><text fill="#000000" font-family="sans-serif" font-size="13" lengthAdjust="spacing" textLength="139.0518" x="265" y="368.5066">dictionaries[lang][key]</text><text fill="#000000" font-family="sans-serif" font-size="13" lengthAdjust="spacing" textLength="79.2314" x="294.9102" y="383.8172">appRef.tick()</text></g><!--SRC=[RP1DIyD048Rl-ok682I1Lky12wBGIoXYUckAJ3PZMBgx2RjRfU2FTpPD6WMlm_D-p1jKq0HxXzPh3AgtK97xL9BWkJT3Rya6U57OEJH2tYx9a-tE6jq2rJRRandOWtoU07hORNyBvWHwLGCnRD5G0Mb8ht2y_eTpeQaFQpJQxcu5ORPQWQTGyl7gCO6YnO0DUe94zn9r5Ng7NTJZCBph6rvMGkosi5vlndGe80dJ1t2Y2pnk81tmOhZFVOWhfV0D8H4Z75NpKCNIA6DXNbj_RhnqgY4OAukPZAgoOe4ZR1- -dEAeLcb-GogZ_c2BUQjad06T8d-8ViS3fnnho- -yqGTtawSi_m40]--></g></svg>