<svg xmlns="http://www.w3.org/2000/svg" xmlns:xlink="http://www.w3.org/1999/xlink" contentStyleType="text/css" height="2995.8333px" preserveAspectRatio="none" style="width:1825px;height:2995px;background:#FFFFFF;" version="1.1" viewBox="0 0 1825 2995" width="1825px" zoomAndPan="magnify"><title>ER Diagram - FlightReservation DB</title><defs/><g><g class="title"><text fill="#000000" font-family="sans-serif" font-size="29.1667" font-weight="bold" lengthAdjust="spacing" textLength="527.4353" x="634.6447" y="49.0316">ER Diagram - FlightReservation DB</text></g><!--class Users--><g class="entity"><rect fill="#F1F1F1" height="271.7529" rx="5.2083" ry="5.2083" style="stroke:#181818;stroke-width:1.0417;" width="296.9279" x="864.5208" y="1522.3506"/><ellipse cx="965.0661" cy="1555.6839" fill="#ADD1B2" rx="22.9167" ry="22.9167" style="stroke:#181818;stroke-width:2.0833;"/><path d="M972.5958,1569.2256 L956.513,1569.2256 L956.513,1543.4067 L972.5958,1543.4067 L972.5958,1547.903 L961.6145,1547.903 L961.6145,1553.4714 L971.5582,1553.4714 L971.5582,1557.9677 L961.6145,1557.9677 L961.6145,1564.7293 L972.5958,1564.7293 Z " fill="#000000"/><text fill="#000000" font-family="sans-serif" font-size="29.1667" lengthAdjust="spacing" textLength="78.1291" x="1007.7744" y="1566.7069">Users</text><line style="stroke:#181818;stroke-width:1.0417;" x1="866.6042" x2="1159.3654" y1="1589.0173" y2="1589.0173"/><ellipse cx="887.4375" cy="1617.6509" fill="#000000" rx="6.25" ry="6.25" style="stroke:#000000;stroke-width:2.0833;"/><text fill="#000000" font-family="sans-serif" font-size="29.1667" lengthAdjust="spacing" textLength="91.8864" x="906.1875" y="1625.5488">Id : int</text><text fill="#000000" font-family="sans-serif" font-size="29.1667" lengthAdjust="spacing" textLength="241.8498" x="906.1875" y="1659.8994">FullName : string</text><text fill="#000000" font-family="sans-serif" font-size="29.1667" lengthAdjust="spacing" textLength="186.1226" x="906.1875" y="1694.25">Email : string</text><text fill="#000000" font-family="sans-serif" font-size="29.1667" lengthAdjust="spacing" textLength="242.7612" x="906.1875" y="1728.6006">Password : string</text><text fill="#000000" font-family="sans-serif" font-size="29.1667" lengthAdjust="spacing" textLength="205.8187" x="906.1875" y="1762.9512">IsAdmin : bool</text><line style="stroke:#181818;stroke-width:1.0417;" x1="866.6042" x2="1159.3654" y1="1777.4368" y2="1777.4368"/></g><!--class Airports--><g class="entity"><rect fill="#F1F1F1" height="271.7529" rx="5.2083" ry="5.2083" style="stroke:#181818;stroke-width:1.0417;" width="276.6622" x="1534.6458" y="1076.5173"/><ellipse cx="1608.8808" cy="1109.8506" fill="#ADD1B2" rx="22.9167" ry="22.9167" style="stroke:#181818;stroke-width:2.0833;"/><path d="M1616.4105,1123.3923 L1600.3277,1123.3923 L1600.3277,1097.5734 L1616.4105,1097.5734 L1616.4105,1102.0696 L1605.4292,1102.0696 L1605.4292,1107.6381 L1615.3729,1107.6381 L1615.3729,1112.1343 L1605.4292,1112.1343 L1605.4292,1118.896 L1616.4105,1118.896 Z " fill="#000000"/><text fill="#000000" font-family="sans-serif" font-size="29.1667" lengthAdjust="spacing" textLength="114.4735" x="1647.5996" y="1120.8735">Airports</text><line style="stroke:#181818;stroke-width:1.0417;" x1="1536.7292" x2="1809.2247" y1="1143.1839" y2="1143.1839"/><ellipse cx="1557.5625" cy="1171.8175" fill="#000000" rx="6.25" ry="6.25" style="stroke:#000000;stroke-width:2.0833;"/><text fill="#000000" font-family="sans-serif" font-size="29.1667" lengthAdjust="spacing" textLength="91.8864" x="1576.3125" y="1179.7155">Id : int</text><text fill="#000000" font-family="sans-serif" font-size="29.1667" lengthAdjust="spacing" textLength="182.8186" x="1576.3125" y="1214.0661">Code : string</text><text fill="#000000" font-family="sans-serif" font-size="29.1667" lengthAdjust="spacing" textLength="191.2496" x="1576.3125" y="1248.4167">Name : string</text><text fill="#000000" font-family="sans-serif" font-size="29.1667" lengthAdjust="spacing" textLength="164.8743" x="1576.3125" y="1282.7673">City : string</text><text fill="#000000" font-family="sans-serif" font-size="29.1667" lengthAdjust="spacing" textLength="222.4955" x="1576.3125" y="1317.1178">Country : string</text><line style="stroke:#181818;stroke-width:1.0417;" x1="1536.7292" x2="1809.2247" y1="1331.6035" y2="1331.6035"/></g><!--class Flights--><g class="entity"><rect fill="#F1F1F1" height="340.4541" rx="5.2083" ry="5.2083" style="stroke:#181818;stroke-width:1.0417;" width="418.337" x="803.8125" y="1040.1006"/><ellipse cx="956.8449" cy="1073.4339" fill="#ADD1B2" rx="22.9167" ry="22.9167" style="stroke:#181818;stroke-width:2.0833;"/><path d="M964.3746,1086.9756 L948.2919,1086.9756 L948.2919,1061.1567 L964.3746,1061.1567 L964.3746,1065.653 L953.3934,1065.653 L953.3934,1071.2214 L963.337,1071.2214 L963.337,1075.7177 L953.3934,1075.7177 L953.3934,1082.4793 L964.3746,1082.4793 Z " fill="#000000"/><text fill="#000000" font-family="sans-serif" font-size="29.1667" lengthAdjust="spacing" textLength="94.5638" x="999.5533" y="1084.4569">Flights</text><line style="stroke:#181818;stroke-width:1.0417;" x1="805.8958" x2="1220.0662" y1="1106.7673" y2="1106.7673"/><ellipse cx="826.7292" cy="1135.4009" fill="#000000" rx="6.25" ry="6.25" style="stroke:#000000;stroke-width:2.0833;"/><text fill="#000000" font-family="sans-serif" font-size="29.1667" lengthAdjust="spacing" textLength="91.8864" x="845.4792" y="1143.2988">Id : int</text><text fill="#000000" font-family="sans-serif" font-size="29.1667" lengthAdjust="spacing" textLength="303.2308" x="845.4792" y="1177.6494">FlightNumber : string</text><text fill="#000000" font-family="sans-serif" font-size="29.1667" lengthAdjust="spacing" textLength="264.209" x="845.4792" y="1212">FromAirportId : int</text><text fill="#000000" font-family="sans-serif" font-size="29.1667" lengthAdjust="spacing" textLength="227.8503" x="845.4792" y="1246.3506">ToAirportId : int</text><text fill="#000000" font-family="sans-serif" font-size="29.1667" lengthAdjust="spacing" textLength="364.1703" x="845.4792" y="1280.7012">DepartureTime : datetime</text><text fill="#000000" font-family="sans-serif" font-size="29.1667" lengthAdjust="spacing" textLength="314.5386" x="845.4792" y="1315.0518">ArrivalTime : datetime</text><text fill="#000000" font-family="sans-serif" font-size="29.1667" lengthAdjust="spacing" textLength="205.1066" x="845.4792" y="1349.4023">Price : decimal</text><line style="stroke:#181818;stroke-width:1.0417;" x1="805.8958" x2="1220.0662" y1="1363.888" y2="1363.888"/></g><!--class Seats--><g class="entity"><rect fill="#F1F1F1" height="306.1035" rx="5.2083" ry="5.2083" style="stroke:#181818;stroke-width:1.0417;" width="364.7746" x="83.0625" y="92.6839"/><ellipse cx="143.0253" cy="126.0173" fill="#ADD1B2" rx="22.9167" ry="22.9167" style="stroke:#181818;stroke-width:2.0833;"/><path d="M150.555,139.5589 L134.4722,139.5589 L134.4722,113.74 L150.555,113.74 L150.555,118.2363 L139.5737,118.2363 L139.5737,123.8047 L149.5174,123.8047 L149.5174,128.301 L139.5737,128.301 L139.5737,135.0627 L150.555,135.0627 Z " fill="#000000"/><text fill="#000000" font-family="sans-serif" font-size="29.1667" lengthAdjust="spacing" textLength="234.3018" x="178.5726" y="137.0402">SeatOccupations</text><line style="stroke:#181818;stroke-width:1.0417;" x1="85.1458" x2="445.7537" y1="159.3506" y2="159.3506"/><ellipse cx="105.9792" cy="187.9842" fill="#000000" rx="6.25" ry="6.25" style="stroke:#000000;stroke-width:2.0833;"/><text fill="#000000" font-family="sans-serif" font-size="29.1667" lengthAdjust="spacing" textLength="91.8864" x="124.7292" y="195.8822">Id : int</text><text fill="#000000" font-family="sans-serif" font-size="29.1667" lengthAdjust="spacing" textLength="171.582" x="124.7292" y="230.2327">FlightId : int</text><text fill="#000000" font-family="sans-serif" font-size="29.1667" lengthAdjust="spacing" textLength="282.5094" x="124.7292" y="264.5833">SeatNumber : string</text><text fill="#000000" font-family="sans-serif" font-size="29.1667" lengthAdjust="spacing" textLength="241.0238" x="124.7292" y="298.9339">IsReserved : bool</text><text fill="#000000" font-family="sans-serif" font-size="29.1667" lengthAdjust="spacing" textLength="155.1473" x="124.7292" y="333.2845">UserId : int</text><text fill="#000000" font-family="sans-serif" font-size="29.1667" lengthAdjust="spacing" textLength="310.6079" x="124.7292" y="367.6351">ReservedAt : datetime</text><line style="stroke:#181818;stroke-width:1.0417;" x1="85.1458" x2="445.7537" y1="382.1208" y2="382.1208"/></g><!--class Tickets--><g class="entity"><rect fill="#F1F1F1" height="443.5059" rx="5.2083" ry="5.2083" style="stroke:#181818;stroke-width:1.0417;" width="379.0731" x="75.9167" y="471.8923"/><ellipse cx="206.1555" cy="505.2256" fill="#ADD1B2" rx="22.9167" ry="22.9167" style="stroke:#181818;stroke-width:2.0833;"/><path d="M213.6852,518.7673 L197.6025,518.7673 L197.6025,492.9484 L213.6852,492.9484 L213.6852,497.4446 L202.704,497.4446 L202.704,503.0131 L212.6476,503.0131 L212.6476,507.5093 L202.704,507.5093 L202.704,514.271 L213.6852,514.271 Z " fill="#000000"/><text fill="#000000" font-family="sans-serif" font-size="29.1667" lengthAdjust="spacing" textLength="100.887" x="248.8639" y="516.2485">Tickets</text><line style="stroke:#181818;stroke-width:1.0417;" x1="78" x2="452.9064" y1="538.5589" y2="538.5589"/><ellipse cx="98.8333" cy="567.1925" fill="#000000" rx="6.25" ry="6.25" style="stroke:#000000;stroke-width:2.0833;"/><text fill="#000000" font-family="sans-serif" font-size="29.1667" lengthAdjust="spacing" textLength="91.8864" x="117.5833" y="575.0905">Id : int</text><text fill="#000000" font-family="sans-serif" font-size="29.1667" lengthAdjust="spacing" textLength="155.1473" x="117.5833" y="609.4411">UserId : int</text><text fill="#000000" font-family="sans-serif" font-size="29.1667" lengthAdjust="spacing" textLength="171.582" x="117.5833" y="643.7917">FlightId : int</text><text fill="#000000" font-family="sans-serif" font-size="29.1667" lengthAdjust="spacing" textLength="282.5094" x="117.5833" y="678.1423">SeatNumber : string</text><text fill="#000000" font-family="sans-serif" font-size="29.1667" lengthAdjust="spacing" textLength="264.0808" x="117.5833" y="712.4928">SeatPrice : decimal</text><text fill="#000000" font-family="sans-serif" font-size="29.1667" lengthAdjust="spacing" textLength="324.9064" x="117.5833" y="746.8434">BaggagePrice : decimal</text><text fill="#000000" font-family="sans-serif" font-size="29.1667" lengthAdjust="spacing" textLength="296.7509" x="117.5833" y="781.194">ExtrasTotal : decimal</text><text fill="#000000" font-family="sans-serif" font-size="29.1667" lengthAdjust="spacing" textLength="271.814" x="117.5833" y="815.5446">FinalPrice : decimal</text><text fill="#000000" font-family="sans-serif" font-size="29.1667" lengthAdjust="spacing" textLength="286.3261" x="117.5833" y="849.8952">ExtraReward : string</text><text fill="#000000" font-family="sans-serif" font-size="29.1667" lengthAdjust="spacing" textLength="293.1478" x="117.5833" y="884.2458">CreatedAt : datetime</text><line style="stroke:#181818;stroke-width:1.0417;" x1="78" x2="452.9064" y1="898.7314" y2="898.7314"/></g><!--class Resv--><g class="entity"><rect fill="#F1F1F1" height="443.5059" rx="5.2083" ry="5.2083" style="stroke:#181818;stroke-width:1.0417;" width="501.7354" x="14.5833" y="988.5589"/><ellipse cx="167.0105" cy="1021.8923" fill="#ADD1B2" rx="22.9167" ry="22.9167" style="stroke:#181818;stroke-width:2.0833;"/><path d="M174.5402,1035.4339 L158.4574,1035.4339 L158.4574,1009.615 L174.5402,1009.615 L174.5402,1014.1113 L163.559,1014.1113 L163.559,1019.6797 L173.5026,1019.6797 L173.5026,1024.176 L163.559,1024.176 L163.559,1030.9377 L174.5402,1030.9377 Z " fill="#000000"/><text fill="#000000" font-family="sans-serif" font-size="29.1667" lengthAdjust="spacing" textLength="179.1728" x="209.7188" y="1032.9152">Reservations</text><line style="stroke:#181818;stroke-width:1.0417;" x1="16.6667" x2="514.2354" y1="1055.2256" y2="1055.2256"/><ellipse cx="37.5" cy="1083.8592" fill="#000000" rx="6.25" ry="6.25" style="stroke:#000000;stroke-width:2.0833;"/><text fill="#000000" font-family="sans-serif" font-size="29.1667" lengthAdjust="spacing" textLength="91.8864" x="56.25" y="1091.7572">Id : int</text><text fill="#000000" font-family="sans-serif" font-size="29.1667" lengthAdjust="spacing" textLength="155.1473" x="56.25" y="1126.1077">UserId : int</text><text fill="#000000" font-family="sans-serif" font-size="29.1667" lengthAdjust="spacing" textLength="171.582" x="56.25" y="1160.4583">FlightId : int</text><text fill="#000000" font-family="sans-serif" font-size="29.1667" lengthAdjust="spacing" textLength="282.5094" x="56.25" y="1194.8089">SeatNumber : string</text><text fill="#000000" font-family="sans-serif" font-size="29.1667" lengthAdjust="spacing" textLength="270.1335" x="56.25" y="1229.1595">BaggageCount : int</text><text fill="#000000" font-family="sans-serif" font-size="29.1667" lengthAdjust="spacing" textLength="324.9064" x="56.25" y="1263.5101">BaggagePrice : decimal</text><text fill="#000000" font-family="sans-serif" font-size="29.1667" lengthAdjust="spacing" textLength="286.3261" x="56.25" y="1297.8607">ExtraReward : string</text><text fill="#000000" font-family="sans-serif" font-size="29.1667" lengthAdjust="spacing" textLength="447.5688" x="56.25" y="1332.2113">ExtraDiscountAmount : decimal</text><text fill="#000000" font-family="sans-serif" font-size="29.1667" lengthAdjust="spacing" textLength="276.9124" x="56.25" y="1366.5618">TotalPrice : decimal</text><text fill="#000000" font-family="sans-serif" font-size="29.1667" lengthAdjust="spacing" textLength="293.1478" x="56.25" y="1400.9124">CreatedAt : datetime</text><line style="stroke:#181818;stroke-width:1.0417;" x1="16.6667" x2="514.2354" y1="1415.3981" y2="1415.3981"/></g><!--class Rewards--><g class="entity"><rect fill="#F1F1F1" height="306.1035" rx="5.2083" ry="5.2083" style="stroke:#181818;stroke-width:1.0417;" width="429.0894" x="50.9167" y="1505.1839"/><ellipse cx="161.0678" cy="1538.5173" fill="#ADD1B2" rx="22.9167" ry="22.9167" style="stroke:#181818;stroke-width:2.0833;"/><path d="M168.5975,1552.0589 L152.5148,1552.0589 L152.5148,1526.24 L168.5975,1526.24 L168.5975,1530.7363 L157.6163,1530.7363 L157.6163,1536.3047 L167.5599,1536.3047 L167.5599,1540.801 L157.6163,1540.801 L157.6163,1547.5627 L168.5975,1547.5627 Z " fill="#000000"/><text fill="#000000" font-family="sans-serif" font-size="29.1667" lengthAdjust="spacing" textLength="191.0787" x="203.7762" y="1549.5402">ExtraRewards</text><line style="stroke:#181818;stroke-width:1.0417;" x1="53" x2="477.9227" y1="1571.8506" y2="1571.8506"/><ellipse cx="73.8333" cy="1600.4842" fill="#000000" rx="6.25" ry="6.25" style="stroke:#000000;stroke-width:2.0833;"/><text fill="#000000" font-family="sans-serif" font-size="29.1667" lengthAdjust="spacing" textLength="91.8864" x="92.5833" y="1608.3822">Id : int</text><text fill="#000000" font-family="sans-serif" font-size="29.1667" lengthAdjust="spacing" textLength="155.1473" x="92.5833" y="1642.7327">UserId : int</text><text fill="#000000" font-family="sans-serif" font-size="29.1667" lengthAdjust="spacing" textLength="171.582" x="92.5833" y="1677.0833">FlightId : int</text><text fill="#000000" font-family="sans-serif" font-size="29.1667" lengthAdjust="spacing" textLength="277.1688" x="92.5833" y="1711.4339">RewardText : string</text><text fill="#000000" font-family="sans-serif" font-size="29.1667" lengthAdjust="spacing" textLength="374.9227" x="92.5833" y="1745.7845">DiscountAmount : decimal</text><text fill="#000000" font-family="sans-serif" font-size="29.1667" lengthAdjust="spacing" textLength="279.718" x="92.5833" y="1780.1351">EarnedAt : datetime</text><line style="stroke:#181818;stroke-width:1.0417;" x1="53" x2="477.9227" y1="1794.6208" y2="1794.6208"/></g><!--class Baggage--><g class="entity"><rect fill="#F1F1F1" height="306.1035" rx="5.2083" ry="5.2083" style="stroke:#181818;stroke-width:1.0417;" width="347.3145" x="91.7917" y="1884.3506"/><ellipse cx="131.6119" cy="1917.6839" fill="#ADD1B2" rx="22.9167" ry="22.9167" style="stroke:#181818;stroke-width:2.0833;"/><path d="M139.1416,1931.2256 L123.0589,1931.2256 L123.0589,1905.4067 L139.1416,1905.4067 L139.1416,1909.903 L128.1604,1909.903 L128.1604,1915.4714 L138.104,1915.4714 L138.104,1919.9677 L128.1604,1919.9677 L128.1604,1926.7293 L139.1416,1926.7293 Z " fill="#000000"/><text fill="#000000" font-family="sans-serif" font-size="29.1667" lengthAdjust="spacing" textLength="261.6028" x="162.6831" y="1928.7069">BaggageSelections</text><line style="stroke:#181818;stroke-width:1.0417;" x1="93.875" x2="437.0228" y1="1951.0173" y2="1951.0173"/><ellipse cx="114.7083" cy="1979.6509" fill="#000000" rx="6.25" ry="6.25" style="stroke:#000000;stroke-width:2.0833;"/><text fill="#000000" font-family="sans-serif" font-size="29.1667" lengthAdjust="spacing" textLength="91.8864" x="133.4583" y="1987.5488">Id : int</text><text fill="#000000" font-family="sans-serif" font-size="29.1667" lengthAdjust="spacing" textLength="155.1473" x="133.4583" y="2021.8994">UserId : int</text><text fill="#000000" font-family="sans-serif" font-size="29.1667" lengthAdjust="spacing" textLength="171.582" x="133.4583" y="2056.25">FlightId : int</text><text fill="#000000" font-family="sans-serif" font-size="29.1667" lengthAdjust="spacing" textLength="270.1335" x="133.4583" y="2090.6006">BaggageCount : int</text><text fill="#000000" font-family="sans-serif" font-size="29.1667" lengthAdjust="spacing" textLength="205.1066" x="133.4583" y="2124.9512">Price : decimal</text><text fill="#000000" font-family="sans-serif" font-size="29.1667" lengthAdjust="spacing" textLength="293.1478" x="133.4583" y="2159.3018">CreatedAt : datetime</text><line style="stroke:#181818;stroke-width:1.0417;" x1="93.875" x2="437.0228" y1="2173.7874" y2="2173.7874"/></g><!--class Cards--><g class="entity"><rect fill="#F1F1F1" height="340.4541" rx="5.2083" ry="5.2083" style="stroke:#181818;stroke-width:1.0417;" width="452.0325" x="39.4375" y="2263.0173"/><ellipse cx="155.8977" cy="2296.3506" fill="#ADD1B2" rx="22.9167" ry="22.9167" style="stroke:#181818;stroke-width:2.0833;"/><path d="M163.4274,2309.8923 L147.3446,2309.8923 L147.3446,2284.0734 L163.4274,2284.0734 L163.4274,2288.5696 L152.4461,2288.5696 L152.4461,2294.1381 L162.3898,2294.1381 L162.3898,2298.6343 L152.4461,2298.6343 L152.4461,2305.396 L163.4274,2305.396 Z " fill="#000000"/><text fill="#000000" font-family="sans-serif" font-size="29.1667" lengthAdjust="spacing" textLength="201.4038" x="198.606" y="2307.3735">PaymentCards</text><line style="stroke:#181818;stroke-width:1.0417;" x1="41.5208" x2="489.3866" y1="2329.6839" y2="2329.6839"/><ellipse cx="62.3542" cy="2358.3175" fill="#000000" rx="6.25" ry="6.25" style="stroke:#000000;stroke-width:2.0833;"/><text fill="#000000" font-family="sans-serif" font-size="29.1667" lengthAdjust="spacing" textLength="91.8864" x="81.1042" y="2366.2155">Id : int</text><text fill="#000000" font-family="sans-serif" font-size="29.1667" lengthAdjust="spacing" textLength="155.1473" x="81.1042" y="2400.5661">UserId : int</text><text fill="#000000" font-family="sans-serif" font-size="29.1667" lengthAdjust="spacing" textLength="352.1505" x="81.1042" y="2434.9167">CardHolderName : string</text><text fill="#000000" font-family="sans-serif" font-size="29.1667" lengthAdjust="spacing" textLength="397.8658" x="81.1042" y="2469.2673">CardNumberMasked : string</text><text fill="#000000" font-family="sans-serif" font-size="29.1667" lengthAdjust="spacing" textLength="287.9211" x="81.1042" y="2503.6178">ExpiryMonth : string</text><text fill="#000000" font-family="sans-serif" font-size="29.1667" lengthAdjust="spacing" textLength="260.2356" x="81.1042" y="2537.9684">ExpiryYear : string</text><text fill="#000000" font-family="sans-serif" font-size="29.1667" lengthAdjust="spacing" textLength="264.679" x="81.1042" y="2572.319">SavedAt : datetime</text><line style="stroke:#181818;stroke-width:1.0417;" x1="41.5208" x2="489.3866" y1="2586.8047" y2="2586.8047"/></g><!--class Msgs--><g class="entity"><rect fill="#F1F1F1" height="306.1035" rx="5.2083" ry="5.2083" style="stroke:#181818;stroke-width:1.0417;" width="347.3145" x="91.7917" y="2676.0173"/><ellipse cx="138.8217" cy="2709.3506" fill="#ADD1B2" rx="22.9167" ry="22.9167" style="stroke:#181818;stroke-width:2.0833;"/><path d="M146.3514,2722.8923 L130.2686,2722.8923 L130.2686,2697.0734 L146.3514,2697.0734 L146.3514,2701.5696 L135.3702,2701.5696 L135.3702,2707.1381 L145.3138,2707.1381 L145.3138,2711.6343 L135.3702,2711.6343 L135.3702,2718.396 L146.3514,2718.396 Z " fill="#000000"/><text fill="#000000" font-family="sans-serif" font-size="29.1667" lengthAdjust="spacing" textLength="245.5811" x="171.495" y="2720.3735">ContactMessages</text><line style="stroke:#181818;stroke-width:1.0417;" x1="93.875" x2="437.0228" y1="2742.6839" y2="2742.6839"/><ellipse cx="114.7083" cy="2771.3175" fill="#000000" rx="6.25" ry="6.25" style="stroke:#000000;stroke-width:2.0833;"/><text fill="#000000" font-family="sans-serif" font-size="29.1667" lengthAdjust="spacing" textLength="91.8864" x="133.4583" y="2779.2155">Id : int</text><text fill="#000000" font-family="sans-serif" font-size="29.1667" lengthAdjust="spacing" textLength="241.8498" x="133.4583" y="2813.5661">FullName : string</text><text fill="#000000" font-family="sans-serif" font-size="29.1667" lengthAdjust="spacing" textLength="186.1226" x="133.4583" y="2847.9167">Email : string</text><text fill="#000000" font-family="sans-serif" font-size="29.1667" lengthAdjust="spacing" textLength="213.2528" x="133.4583" y="2882.2673">Subject : string</text><text fill="#000000" font-family="sans-serif" font-size="29.1667" lengthAdjust="spacing" textLength="231.7668" x="133.4583" y="2916.6178">Message : string</text><text fill="#000000" font-family="sans-serif" font-size="29.1667" lengthAdjust="spacing" textLength="293.1478" x="133.4583" y="2950.9684">CreatedAt : datetime</text><line style="stroke:#181818;stroke-width:1.0417;" x1="93.875" x2="437.0228" y1="2965.4541" y2="2965.4541"/></g><!--link Flights to Airports--><g class="link"><path codeLine="93" d="M1260.0831,1211.0985 C1361.7706,1211.4318 1427.2501,1211.63 1517.3543,1211.9216" fill="none" id="Flights-Airports" style="stroke:#181818;stroke-width:2.0833;"/><line style="stroke:#181818;stroke-width:2.0833;" x1="1239.2499" x2="1222.5424" y1="1211.0302" y2="1223.4755"/><line style="stroke:#181818;stroke-width:2.0833;" x1="1239.2499" x2="1222.6243" y1="1211.0302" y2="1198.4757"/><line style="stroke:#181818;stroke-width:2.0833;" x1="1239.2499" x2="1222.5833" y1="1211.0302" y2="1210.9756"/><ellipse cx="1251.7498" cy="1211.0712" fill="none" rx="8.3333" ry="8.3333" style="stroke:#181818;stroke-width:2.0833;"/><line style="stroke:#181818;stroke-width:2.0833;" x1="1525.7145" x2="1525.6606" y1="1203.6153" y2="1220.2819"/><line style="stroke:#181818;stroke-width:2.0833;" x1="1519.4646" x2="1519.4106" y1="1203.5951" y2="1220.2617"/><line style="stroke:#181818;stroke-width:2.0833;" x1="1517.3543" x2="1534.0208" y1="1211.9216" y2="1211.9756"/><text fill="#000000" font-family="sans-serif" font-size="27.0833" lengthAdjust="spacing" textLength="184.8623" x="1286.7292" y="1204.0972">FromAirportId</text></g><!--link Flights to Airports--><g class="link"><path codeLine="94" d="M1259.7374,1262.2336 C1280.5707,1265.5669 1264.4583,1262.4756 1284.6458,1264.4964 C1367.5833,1272.7256 1389.5,1275.1423 1472.1458,1264.4964 C1492.3125,1261.8923 1497.106,1261.5829 1517.6268,1256.8954" fill="none" id="Flights-Airports-1" style="stroke:#181818;stroke-width:2.0833;"/><line style="stroke:#181818;stroke-width:2.0833;" x1="1239.1657" x2="1220.7335" y1="1258.9421" y2="1268.6519"/><line style="stroke:#181818;stroke-width:2.0833;" x1="1239.1657" x2="1224.6832" y1="1258.9421" y2="1243.9659"/><line style="stroke:#181818;stroke-width:2.0833;" x1="1239.1657" x2="1222.7083" y1="1258.9421" y2="1256.3089"/><ellipse cx="1251.5087" cy="1260.917" fill="none" rx="8.3333" ry="8.3333" style="stroke:#181818;stroke-width:2.0833;"/><line style="stroke:#181818;stroke-width:2.0833;" x1="1523.8952" x2="1527.6067" y1="1246.9156" y2="1263.1637"/><line style="stroke:#181818;stroke-width:2.0833;" x1="1517.8021" x2="1521.5136" y1="1248.3074" y2="1264.5556"/><line style="stroke:#181818;stroke-width:2.0833;" x1="1517.6268" x2="1533.875" y1="1256.8954" y2="1253.1839"/><text fill="#000000" font-family="sans-serif" font-size="27.0833" lengthAdjust="spacing" textLength="151.1007" x="1303.3958" y="1257.3472">ToAirportId</text></g><!--link Seats to Flights--><g class="link"><path codeLine="95" d="M484.1444,302.0651 C582.3944,334.5651 663.7083,376.2048 741.3125,460.3298 C890.75,622.2464 955.6317,856.5307 985.5692,1022.9057" fill="none" id="Seats-Flights" style="stroke:#181818;stroke-width:2.0833;"/><line style="stroke:#181818;stroke-width:2.0833;" x1="464.3651" x2="444.616" y1="295.5223" y2="302.1557"/><line style="stroke:#181818;stroke-width:2.0833;" x1="464.3651" x2="452.4673" y1="295.5223" y2="278.4205"/><line style="stroke:#181818;stroke-width:2.0833;" x1="464.3651" x2="448.5417" y1="295.5223" y2="290.2881"/><ellipse cx="476.2327" cy="299.448" fill="none" rx="8.3333" ry="8.3333" style="stroke:#181818;stroke-width:2.0833;"/><line style="stroke:#181818;stroke-width:2.0833;" x1="995.2466" x2="978.8434" y1="1029.6315" y2="1032.5831"/><line style="stroke:#181818;stroke-width:2.0833;" x1="994.1398" x2="977.7366" y1="1023.4803" y2="1026.4319"/><line style="stroke:#181818;stroke-width:2.0833;" x1="985.5692" x2="988.5208" y1="1022.9057" y2="1039.3089"/></g><!--link Seats to Users--><g class="link"><path codeLine="96" d="M476.8368,386.8623 C502.0451,408.8623 497.4792,408.7464 516.3125,435.3298 C703.7708,699.7673 656.7917,816.1423 741.3125,1129.0798 C775.4167,1255.3089 745.625,1299.4756 803.8125,1416.5798 C822.1458,1453.4339 836.7636,1476.4226 863.2844,1508.7559" fill="none" id="Seats-Users" style="stroke:#181818;stroke-width:2.0833;"/><line style="stroke:#181818;stroke-width:2.0833;" x1="461.1404" x2="440.3642" y1="373.1637" y2="371.6226"/><line style="stroke:#181818;stroke-width:2.0833;" x1="461.1404" x2="456.8025" y1="373.1637" y2="352.7869"/><line style="stroke:#181818;stroke-width:2.0833;" x1="461.1404" x2="448.5833" y1="373.1637" y2="362.2048"/><ellipse cx="470.5582" cy="381.3828" fill="none" rx="8.3333" ry="8.3333" style="stroke:#181818;stroke-width:2.0833;"/><line style="stroke:#181818;stroke-width:2.0833;" x1="875.0124" x2="862.1261" y1="1509.9142" y2="1520.484"/><line style="stroke:#181818;stroke-width:2.0833;" x1="871.0488" x2="858.1624" y1="1505.0818" y2="1515.6516"/><line style="stroke:#181818;stroke-width:2.0833;" x1="863.2844" x2="873.8542" y1="1508.7559" y2="1521.6423"/></g><!--link Tickets to Flights--><g class="link"><path codeLine="97" d="M490.6999,765.353 C582.1166,799.2697 655.375,834.7673 741.3125,897.8298 C795.0417,937.2256 834.5924,976.4849 876.8216,1026.7557" fill="none" id="Tickets-Flights" style="stroke:#181818;stroke-width:2.0833;"/><line style="stroke:#181818;stroke-width:2.0833;" x1="471.1675" x2="451.1936" y1="758.1063" y2="764.0283"/><line style="stroke:#181818;stroke-width:2.0833;" x1="471.1675" x2="459.8897" y1="758.1063" y2="740.5895"/><line style="stroke:#181818;stroke-width:2.0833;" x1="471.1675" x2="455.5417" y1="758.1063" y2="752.3089"/><ellipse cx="482.887" cy="762.4543" fill="none" rx="8.3333" ry="8.3333" style="stroke:#181818;stroke-width:2.0833;"/><line style="stroke:#181818;stroke-width:2.0833;" x1="888.5624" x2="875.8008" y1="1027.7764" y2="1038.4965"/><line style="stroke:#181818;stroke-width:2.0833;" x1="884.5423" x2="871.7808" y1="1022.9908" y2="1033.711"/><line style="stroke:#181818;stroke-width:2.0833;" x1="876.8216" x2="887.5417" y1="1026.7557" y2="1039.5173"/></g><!--link Tickets to Users--><g class="link"><path codeLine="98" d="M480.7994,907.8613 C501.9869,931.4655 497.6042,927.8923 516.3125,951.9964 C665.2708,1143.7673 660.5,1220.5589 803.8125,1416.5798 C829.5833,1451.8089 848.3721,1475.6103 876.9554,1509.2353" fill="none" id="Tickets-Users" style="stroke:#181818;stroke-width:2.0833;"/><line style="stroke:#181818;stroke-width:2.0833;" x1="466.8831" x2="446.4478" y1="892.3577" y2="888.3046"/><line style="stroke:#181818;stroke-width:2.0833;" x1="466.8831" x2="465.0522" y1="892.3577" y2="871.6049"/><line style="stroke:#181818;stroke-width:2.0833;" x1="466.8831" x2="455.75" y1="892.3577" y2="879.9548"/><ellipse cx="475.2329" cy="901.6599" fill="none" rx="8.3333" ry="8.3333" style="stroke:#181818;stroke-width:2.0833;"/><line style="stroke:#181818;stroke-width:2.0833;" x1="888.702" x2="876.0034" y1="1510.1873" y2="1520.9819"/><line style="stroke:#181818;stroke-width:2.0833;" x1="884.654" x2="871.9554" y1="1505.4253" y2="1516.2199"/><line style="stroke:#181818;stroke-width:2.0833;" x1="876.9554" x2="887.75" y1="1509.2353" y2="1521.9339"/></g><!--link Resv to Flights--><g class="link"><path codeLine="99" d="M554.625,1210.3298 C647.4375,1210.3298 697.4792,1210.3298 786.1667,1210.3298" fill="none" id="Resv-Flights" style="stroke:#181818;stroke-width:2.0833;"/><line style="stroke:#181818;stroke-width:2.0833;" x1="533.7917" x2="517.125" y1="1210.3298" y2="1222.8298"/><line style="stroke:#181818;stroke-width:2.0833;" x1="533.7917" x2="517.125" y1="1210.3298" y2="1197.8298"/><line style="stroke:#181818;stroke-width:2.0833;" x1="533.7917" x2="517.125" y1="1210.3298" y2="1210.3298"/><ellipse cx="546.2917" cy="1210.3298" fill="none" rx="8.3333" ry="8.3333" style="stroke:#181818;stroke-width:2.0833;"/><line style="stroke:#181818;stroke-width:2.0833;" x1="794.5" x2="794.5" y1="1201.9964" y2="1218.6631"/><line style="stroke:#181818;stroke-width:2.0833;" x1="788.25" x2="788.25" y1="1201.9964" y2="1218.6631"/><line style="stroke:#181818;stroke-width:2.0833;" x1="786.1667" x2="802.8333" y1="1210.3298" y2="1210.3298"/></g><!--link Resv to Users--><g class="link"><path codeLine="100" d="M549.2471,1380.0755 C664.4138,1449.4505 750.7447,1501.4792 849.578,1561.0208" fill="none" id="Resv-Users" style="stroke:#181818;stroke-width:2.0833;"/><line style="stroke:#181818;stroke-width:2.0833;" x1="531.4015" x2="510.675" y1="1369.3256" y2="1371.433"/><line style="stroke:#181818;stroke-width:2.0833;" x1="531.4015" x2="523.575" y1="1369.3256" y2="1350.0182"/><line style="stroke:#181818;stroke-width:2.0833;" x1="531.4015" x2="517.125" y1="1369.3256" y2="1360.7256"/><ellipse cx="542.1089" cy="1375.7756" fill="none" rx="8.3333" ry="8.3333" style="stroke:#181818;stroke-width:2.0833;"/><line style="stroke:#181818;stroke-width:2.0833;" x1="861.0164" x2="852.4158" y1="1558.1831" y2="1572.4592"/><line style="stroke:#181818;stroke-width:2.0833;" x1="855.6628" x2="847.0623" y1="1554.9578" y2="1569.234"/><line style="stroke:#181818;stroke-width:2.0833;" x1="849.578" x2="863.8542" y1="1561.0208" y2="1569.6214"/></g><!--link Rewards to Flights--><g class="link"><path codeLine="101" d="M512.6834,1510.5195 C613.9334,1449.5195 688.1202,1404.8062 788.7036,1344.202" fill="none" id="Rewards-Flights" style="stroke:#181818;stroke-width:2.0833;"/><line style="stroke:#181818;stroke-width:2.0833;" x1="494.8385" x2="487.0131" y1="1521.2706" y2="1540.5784"/><line style="stroke:#181818;stroke-width:2.0833;" x1="494.8385" x2="474.1119" y1="1521.2706" y2="1519.1644"/><line style="stroke:#181818;stroke-width:2.0833;" x1="494.8385" x2="480.5625" y1="1521.2706" y2="1529.8714"/><ellipse cx="505.5455" cy="1514.82" fill="none" rx="8.3333" ry="8.3333" style="stroke:#181818;stroke-width:2.0833;"/><line style="stroke:#181818;stroke-width:2.0833;" x1="791.5406" x2="800.1421" y1="1332.7635" y2="1347.0391"/><line style="stroke:#181818;stroke-width:2.0833;" x1="786.1873" x2="794.7887" y1="1335.989" y2="1350.2646"/><line style="stroke:#181818;stroke-width:2.0833;" x1="788.7036" x2="802.9792" y1="1344.202" y2="1335.6006"/></g><!--link Rewards to Users--><g class="link"><path codeLine="102" d="M518.0625,1658.2464 C640.75,1658.2464 737.6875,1658.2464 847.1875,1658.2464" fill="none" id="Rewards-Users" style="stroke:#181818;stroke-width:2.0833;"/><line style="stroke:#181818;stroke-width:2.0833;" x1="497.2292" x2="480.5625" y1="1658.2464" y2="1670.7464"/><line style="stroke:#181818;stroke-width:2.0833;" x1="497.2292" x2="480.5625" y1="1658.2464" y2="1645.7464"/><line style="stroke:#181818;stroke-width:2.0833;" x1="497.2292" x2="480.5625" y1="1658.2464" y2="1658.2464"/><ellipse cx="509.7292" cy="1658.2464" fill="none" rx="8.3333" ry="8.3333" style="stroke:#181818;stroke-width:2.0833;"/><line style="stroke:#181818;stroke-width:2.0833;" x1="855.5208" x2="855.5208" y1="1649.9131" y2="1666.5798"/><line style="stroke:#181818;stroke-width:2.0833;" x1="849.2708" x2="849.2708" y1="1649.9131" y2="1666.5798"/><line style="stroke:#181818;stroke-width:2.0833;" x1="847.1875" x2="863.8542" y1="1658.2464" y2="1658.2464"/></g><!--link Baggage to Flights--><g class="link"><path codeLine="103" d="M468.9269,1892.048 C495.5519,1870.5896 492.7917,1871.1423 516.3125,1847.8298 C557.2292,1807.2673 739.7033,1568.883 872.1408,1394.1538" fill="none" id="Baggage-Flights" style="stroke:#181818;stroke-width:2.0833;"/><line style="stroke:#181818;stroke-width:2.0833;" x1="452.7059" x2="447.5731" y1="1905.1212" y2="1925.3123"/><line style="stroke:#181818;stroke-width:2.0833;" x1="452.7059" x2="431.8852" y1="1905.1212" y2="1905.8472"/><line style="stroke:#181818;stroke-width:2.0833;" x1="452.7059" x2="439.7292" y1="1905.1212" y2="1915.5798"/><ellipse cx="462.4385" cy="1897.2773" fill="none" rx="8.3333" ry="8.3333" style="stroke:#181818;stroke-width:2.0833;"/><line style="stroke:#181818;stroke-width:2.0833;" x1="870.5334" x2="883.8158" y1="1382.4789" y2="1392.5464"/><line style="stroke:#181818;stroke-width:2.0833;" x1="866.758" x2="880.0405" y1="1387.4598" y2="1397.5273"/><line style="stroke:#181818;stroke-width:2.0833;" x1="872.1408" x2="882.2083" y1="1394.1538" y2="1380.8714"/></g><!--link Baggage to Users--><g class="link"><path codeLine="104" d="M475.0315,1967.8938 C566.9482,1934.7896 645.3125,1902.0381 741.3125,1849.9131 C782.7083,1827.4339 811.6112,1809.2927 850.3195,1781.9802" fill="none" id="Baggage-Users" style="stroke:#181818;stroke-width:2.0833;"/><line style="stroke:#181818;stroke-width:2.0833;" x1="455.4307" x2="443.9856" y1="1974.9531" y2="1992.3611"/><line style="stroke:#181818;stroke-width:2.0833;" x1="455.4307" x2="435.5144" y1="1974.9531" y2="1968.8401"/><line style="stroke:#181818;stroke-width:2.0833;" x1="455.4307" x2="439.75" y1="1974.9531" y2="1980.6006"/><ellipse cx="467.1912" cy="1970.7175" fill="none" rx="8.3333" ry="8.3333" style="stroke:#181818;stroke-width:2.0833;"/><line style="stroke:#181818;stroke-width:2.0833;" x1="852.3241" x2="861.9329" y1="1770.3668" y2="1783.9848"/><line style="stroke:#181818;stroke-width:2.0833;" x1="847.2174" x2="856.8262" y1="1773.9701" y2="1787.5881"/><line style="stroke:#181818;stroke-width:2.0833;" x1="850.3195" x2="863.9375" y1="1781.9802" y2="1772.3714"/></g><!--link Cards to Users--><g class="link"><path codeLine="105" d="M506.4905,2237.1216 C519.428,2225.3924 504.2708,2238.7464 516.3125,2226.9964 C658.6042,2088.0173 795.783,1926.4951 892.283,1807.7035" fill="none" id="Cards-Users" style="stroke:#181818;stroke-width:2.0833;"/><line style="stroke:#181818;stroke-width:2.0833;" x1="491.056" x2="487.1041" y1="2251.1145" y2="2271.5696"/><line style="stroke:#181818;stroke-width:2.0833;" x1="491.056" x2="470.3125" y1="2251.1145" y2="2253.0482"/><line style="stroke:#181818;stroke-width:2.0833;" x1="491.056" x2="478.7083" y1="2251.1145" y2="2262.3089"/><ellipse cx="500.3167" cy="2242.7188" fill="none" rx="8.3333" ry="8.3333" style="stroke:#181818;stroke-width:2.0833;"/><line style="stroke:#181818;stroke-width:2.0833;" x1="891.0692" x2="904.0054" y1="1795.981" y2="1806.4897"/><line style="stroke:#181818;stroke-width:2.0833;" x1="887.1285" x2="900.0647" y1="1800.8321" y2="1811.3408"/><line style="stroke:#181818;stroke-width:2.0833;" x1="892.283" x2="902.7917" y1="1807.7035" y2="1794.7673"/></g><!--link Msgs to Users--><g class="link"><path codeLine="106" d="M468.5799,2690.0908 C496.1007,2667.3199 493.9583,2666.0798 516.3125,2639.4964 C738.2708,2375.6006 887.7301,2010.873 959.7301,1810.0188" fill="none" id="Msgs-Users" style="stroke:#181818;stroke-width:2.0833;"/><line style="stroke:#181818;stroke-width:2.0833;" x1="452.5286" x2="447.6561" y1="2703.3717" y2="2723.6272"/><line style="stroke:#181818;stroke-width:2.0833;" x1="452.5286" x2="431.7189" y1="2703.3717" y2="2704.3656"/><line style="stroke:#181818;stroke-width:2.0833;" x1="452.5286" x2="439.6875" y1="2703.3717" y2="2713.9964"/><ellipse cx="462.1594" cy="2695.4031" fill="none" rx="8.3333" ry="8.3333" style="stroke:#181818;stroke-width:2.0833;"/><line style="stroke:#181818;stroke-width:2.0833;" x1="954.6976" x2="970.3867" y1="1799.3623" y2="1804.9863"/><line style="stroke:#181818;stroke-width:2.0833;" x1="952.5886" x2="968.2777" y1="1805.2457" y2="1810.8697"/><line style="stroke:#181818;stroke-width:2.0833;" x1="959.7301" x2="965.3542" y1="1810.0188" y2="1794.3298"/><text fill="#000000" font-family="sans-serif" font-size="27.0833" lengthAdjust="spacing" textLength="160.199" x="580.8958" y="2308.1805">Email match</text></g><!--SRC=[hLN1Zjem4BtdAwmzLa9QzRYtR02L0ri4zD3Za4o3YnCZUy8kwkw_rx4TSE92eUfjylncvisCFH7uWnX9fdYv9LPmXJbnMITwn-izAAXOiUViy-DZGfm4iicIZJcKxS68JKNhjKIDwW2j6ni_9rWRvf4zV3EeVc2WcRNOhuInJxE2FJ5Uax6dZH0lKA41D2bUbmQRLC1522n0wrUfYX2RwRIeU6sWZPGY-JXbJBdQIqKkQVSHvSraqSivr92riS9lsTIa0kYSqDNlydaxBjFYBqsrGHM6dIfPUOq1UorZR8nc4DGeN7Ehj012CgOvIfNY1n3nmKBnt4AOymh29gqGw6kUDtixCAUznIuf3u2M5XSoq-u2OD5DXDc91uuT8QLGvLdJckSxz7tqTgHc4F96SIqwx0LZpr2MK69yC7aZ1Nej2KGFd_8Qn0Nw4b-XVq4pPR9UhZPuBwva0np-Kxs-CdjdJzJhvSRwBJpcEc-Zf9MFTNQp_OcZ_QNi85bNjhNlhjpvhV6DGj5Nz4v0rPTr-UwiKBZLvyHvz6vnVnp0tRrQmB4oTdRgLNPBfrhI5oaALD5ECoVkiin1xt0mxJrNnxciQHl3tn7wxmckFEFCn82SvgYrQO4JFjVbFwx-LRFvQIOIGZxo3MyjwTRnXnoDtj_FVuEd_kAzmWjMSU8MfETubpve_t59jxm6p07ikFRL3uWXrh7S8uc8FTXnkpixu0vWnyrYTpkg435DS5EfWFBjRm00]--></g></svg>